HIERARCHY
ROOT Hips
{
  OFFSET 58.5597 92.8094 9.86802
  CHANNELS 6 Xposition Yposition Zposition Zrotation Xrotation Yrotation
  JOINT spine
  {
    OFFSET 0 7.4756 0.429885
    CHANNELS 3 Zrotation Xrotation Yrotation
    JOINT spine1
    {
      OFFSET 0 9.92301 0
      CHANNELS 3 Zrotation Xrotation Yrotation
      JOINT spine2
      {
        OFFSET 0 9.50804 0
        CHANNELS 3 Zrotation Xrotation Yrotation
        JOINT Neck
        {
          OFFSET 0 24.4111 1.16384
          CHANNELS 3 Zrotation Xrotation Yrotation
          JOINT Head
          {
            OFFSET 0 7.37523 0
            CHANNELS 3 Zrotation Xrotation Yrotation
            End Site
            {
              OFFSET 0 17.8522 -5.88741
            }
          }
        }
        JOINT RightShoulder
        {
          OFFSET -4.00356 10.2679 -0.557468
          CHANNELS 3 Zrotation Xrotation Yrotation
          JOINT RightArm
          {
            OFFSET 0 13.4673 0
            CHANNELS 3 Zrotation Xrotation Yrotation
            JOINT RightArmRoll
            {
              OFFSET 0 6.79858 0
              CHANNELS 3 Zrotation Xrotation Yrotation
              JOINT RightForeArm
              {
                OFFSET 0 19.8018 0
                CHANNELS 3 Zrotation Xrotation Yrotation
                JOINT RightForeArmRoll
                {
                  OFFSET 0 7.62905 0
                  CHANNELS 3 Zrotation Xrotation Yrotation
                  JOINT RightHand
                  {
                    OFFSET 0 15.3098 0
                    CHANNELS 3 Zrotation Xrotation Yrotation
                    End Site
                    {
                      OFFSET 0 0 0
                    }
                  }
                }
              }
            }
          }
        }
        JOINT LeftShoulder
        {
          OFFSET 4.00356 10.2679 -0.557468
          CHANNELS 3 Zrotation Xrotation Yrotation
          JOINT LeftArm
          {
            OFFSET 0 13.4673 0
            CHANNELS 3 Zrotation Xrotation Yrotation
            JOINT LeftArmRoll
            {
              OFFSET 0 6.79858 0
              CHANNELS 3 Zrotation Xrotation Yrotation
              JOINT LeftForeArm
              {
                OFFSET 0 19.8018 0
                CHANNELS 3 Zrotation Xrotation Yrotation
                JOINT LeftForeArmRoll
                {
                  OFFSET 0 7.62905 0
                  CHANNELS 3 Zrotation Xrotation Yrotation
                  JOINT LeftHand
                  {
                    OFFSET 0 15.3098 0
                    CHANNELS 3 Zrotation Xrotation Yrotation
                    End Site
                    {
                      OFFSET 0 0 0
                    }
                  }
                }
              }
            }
          }
        }
      }
    }
  }
  JOINT RightUpLeg
  {
    OFFSET -6.62609 -1.21505 -1.01927
    CHANNELS 3 Zrotation Xrotation Yrotation
    JOINT RightUpLegRoll
    {
      OFFSET 0 17.9517 0
      CHANNELS 3 Zrotation Xrotation Yrotation
      JOINT RightLeg
      {
        OFFSET 0 -22.2304 0
        CHANNELS 3 Zrotation Xrotation Yrotation
        JOINT RightLegRoll
        {
          OFFSET 0 22.3032 0
          CHANNELS 3 Zrotation Xrotation Yrotation
          JOINT RightFoot
          {
            OFFSET 0 18.5636 0
            CHANNELS 3 Zrotation Xrotation Yrotation
            JOINT RightToeBase
            {
              OFFSET 0 15.5183 0
              CHANNELS 3 Zrotation Xrotation Yrotation
              End Site
              {
                OFFSET 0.00657761 7.51539 -0.866263
              }
            }
          }
        }
      }
    }
  }
  JOINT LeftUpLeg
  {
    OFFSET 6.62609 -1.21505 -1.01927
    CHANNELS 3 Zrotation Xrotation Yrotation
    JOINT LeftUpLegRoll
    {
      OFFSET 0 17.9518 0
      CHANNELS 3 Zrotation Xrotation Yrotation
      JOINT LeftLeg
      {
        OFFSET 0 22.2303 0
        CHANNELS 3 Zrotation Xrotation Yrotation
        JOINT LeftLegRoll
        {
          OFFSET 0 22.5093 0
          CHANNELS 3 Zrotation Xrotation Yrotation
          JOINT LeftFoot
          {
            OFFSET 0 18.3575 0
            CHANNELS 3 Zrotation Xrotation Yrotation
            JOINT LeftToeBase
            {
              OFFSET 0 15.5183 0
              CHANNELS 3 Zrotation Xrotation Yrotation
              End Site
              {
                OFFSET -0.029478 7.51539 -0.866262
              }
            }
          }
        }
      }
    }
  }
}
MOTION
Frames: 6
Frame Time: 0.00208333
58.1115 92.8234 5.69693 2.30403 -5.19731 1.11433 -0.0873001 -0.559797 0.0215114 -0.174783 2.85664 0.053444 -0.17563 4.50171 0.0564235 -17.7826 6.83954 -1.11728 18.9868 6.5584 -4.19008 57.7901 -1.50113 -0.826781 115.952 21.4679 12.4922 7.26309e-006 4.33109e-007 -1.1016e-006 5.68374 0.719573 -1.14367 1.4737e-006 6.66805e-007 -2.99999 8.02946 -4.95143 0.69767 -83.0781 -0.811365 3.01334 -90.6216 12.0562 -18.9272 -1.85685e-005 1.67779e-006 1.55055e-006 -7.18046 23.2245 2.94556 -1.8432e-006 8.54541e-007 2.99999 -8.02934 -4.95159 -0.697717 172.836 8.86048 3.20478 180 7.01513e-015 178.782 179.707 25.3038 178.981 -2.2066e-006 -3.05657e-006 0.412457 -18.6055 67.775 19.338 8.14941 27.4155 -0.567216 175.259 0.508508 5.11722 4.54188e-006 -4.6773e-006 -1.04744 -3.87609 -8.64587 -0.0721745 -1.11796e-006 1.71788e-006 -0.117866 19.8325 69.5471 -20.9071 -8.13649 25.2327 3.48774 
58.1081 92.8171 5.69789 2.29881 -5.2009 1.1156 -0.0870926 -0.560466 0.0206919 -0.174368 2.85722 0.051784 -0.175195 4.50229 0.0547551 -17.8099 6.82692 -1.12776 19.0311 6.5495 -4.20131 57.7471 -1.49742 -0.819806 116.051 21.2929 12.3492 7.26309e-006 4.33109e-007 -1.1016e-006 5.7957 1.05054 -1.16739 1.4737e-006 6.66805e-007 -2.99999 8.02946 -4.95143 0.69767 -83.0954 -0.816819 3.01689 -90.6564 11.9161 -18.6845 -1.85685e-005 1.67779e-006 1.55055e-006 -7.3582 23.7354 3.04667 -1.8432e-006 8.54541e-007 2.99999 -8.02934 -4.95159 -0.697717 172.844 8.85026 3.20518 180 7.01513e-015 178.782 179.699 25.2961 178.983 -2.2066e-006 -3.05657e-006 0.412502 -18.6028 67.7717 19.3351 8.14958 27.4172 -0.564764 175.271 0.506796 5.10662 4.54188e-006 -4.6773e-006 -1.04739 -3.88112 -8.64999 -0.0728762 -1.11796e-006 1.71788e-006 -0.117866 19.8294 69.5438 -20.9037 -8.13649 25.2327 3.48774 
58.1099 92.8282 5.73241 2.29351 -5.20404 1.11706 -0.0868854 -0.561362 0.0198855 -0.173954 2.85741 0.0501501 -0.17476 4.50249 0.0531129 -17.8366 6.81652 -1.13806 19.0747 6.53903 -4.21233 57.7054 -1.4942 -0.813303 116.147 21.1199 12.2117 7.26309e-006 4.33109e-007 -1.1016e-006 5.90625 1.37426 -1.19001 1.4737e-006 6.66805e-007 -2.99999 8.02946 -4.95143 0.69767 -83.1139 -0.821346 3.02021 -90.6888 11.773 -18.4435 -1.85685e-005 1.67779e-006 1.55055e-006 -7.53982 24.2473 3.1488 -1.8432e-006 8.54541e-007 2.99999 -8.02934 -4.95159 -0.697717 172.852 8.84056 3.20553 180 7.01513e-015 178.782 179.69 25.2885 178.985 -2.2066e-006 -3.05657e-006 0.412569 -18.6002 67.7686 19.3323 8.14974 27.4188 -0.562587 175.283 0.505504 5.09581 4.54188e-006 -4.6773e-006 -1.04733 -3.88637 -8.65385 -0.073611 -1.11796e-006 1.71788e-006 -0.117866 19.826 69.5403 -20.9001 -8.13649 25.2327 3.48774 
58.0981 92.8228 5.72897 2.28815 -5.20685 1.11867 -0.0866785 -0.562417 0.0190884 -0.173539 2.85734 0.0485345 -0.174326 4.50241 0.0514889 -17.8628 6.80765 -1.14825 19.1179 6.52747 -4.22319 57.6645 -1.49133 -0.807131 116.239 20.9483 12.0781 7.26309e-006 4.33109e-007 -1.1016e-006 6.01586 1.6929 -1.21187 1.4737e-006 6.66805e-007 -2.99999 8.02946 -4.95143 0.69767 -83.1331 -0.825224 3.02338 -90.719 11.6276 -18.2038 -1.85685e-005 1.67779e-006 1.55055e-006 -7.72479 24.76 3.25199 -1.8432e-006 8.54541e-007 2.99999 -8.02934 -4.95159 -0.697717 172.859 8.83123 3.20586 180 7.01513e-015 178.782 179.682 25.281 178.987 -2.2066e-006 -3.05657e-006 0.412652 -18.5977 67.7655 19.3295 8.1499 27.4201 -0.560603 175.296 0.504506 5.08485 4.54188e-006 -4.6773e-006 -1.04725 -3.89178 -8.65755 -0.0743689 -1.11796e-006 1.71788e-006 -0.117866 19.8224 69.5366 -20.8963 -8.13649 25.2327 3.48774 
58.093 92.823 5.72178 2.28275 -5.20947 1.12034 -0.0864717 -0.563563 0.0182964 -0.173125 2.85711 0.0469293 -0.173892 4.50218 0.0498753 -17.8887 6.79966 -1.15838 19.1609 6.51528 -4.23396 57.6242 -1.48865 -0.801148 116.33 20.7774 11.9469 7.26309e-006 4.33109e-007 -1.1016e-006 6.12504 2.00864 -1.23333 1.4737e-006 6.66805e-007 -2.99999 8.02946 -4.95143 0.69767 -83.1527 -0.828731 3.02645 -90.7473 11.4806 -17.9651 -1.85685e-005 1.67779e-006 1.55055e-006 -7.91257 25.2729 3.3563 -1.8432e-006 8.54541e-007 2.99999 -8.02934 -4.95159 -0.697717 172.867 8.82212 3.20617 180 7.01513e-015 178.782 179.674 25.2736 178.989 -2.2066e-006 -3.05657e-006 0.412743 -18.5952 67.7624 19.3268 8.15006 27.4214 -0.558728 175.308 0.503677 5.07379 4.54188e-006 -4.6773e-006 -1.04716 -3.89727 -8.66114 -0.0751401 -1.11796e-006 1.71788e-006 -0.117866 19.8187 69.5328 -20.8924 -8.13649 25.2327 3.48774 
58.0834 92.8221 5.73148 2.27734 -5.21206 1.12204 -0.086265 -0.564732 0.0175058 -0.172711 2.85684 0.0453266 -0.173458 4.50191 0.0482643 -17.9146 6.7919 -1.16848 19.2038 6.50294 -4.24472 57.584 -1.48603 -0.795211 116.42 20.6065 11.8165 7.26309e-006 4.33109e-007 -1.1016e-006 6.23428 2.32365 -1.25471 1.4737e-006 6.66805e-007 -2.99999 8.02946 -4.95143 0.69767 -83.1724 -0.832145 3.0295 -90.7743 11.3328 -17.7269 -1.85685e-005 1.67779e-006 1.55055e-006 -8.10262 25.7858 3.46176 -1.8432e-006 8.54541e-007 2.99999 -8.02934 -4.95159 -0.697717 172.875 8.81305 3.20648 180 7.01513e-015 178.782 179.666 25.2663 178.991 -2.2066e-006 -3.05657e-006 0.412836 -18.5927 67.7593 19.324 8.15022 27.4226 -0.55688 175.321 0.502889 5.06272 4.54188e-006 -4.6773e-006 -1.04707 -3.90278 -8.6647 -0.0759147 -1.11796e-006 1.71788e-006 -0.117866 19.8151 69.529 -20.8885 -8.13649 25.2327 3.48774 
